#Comment line ignore any data following # character 
#Hierarchical Translation and Rotation (.htr) file 
[Header]	
#Header keywords are followed by a single value 
FileType HTR		#Single word string
DataType HTRS		#Translation followed by rotation and scale data
FileVersion 1		#integer
NumSegments 64		#integer
NumFrames 2		#integer
DataFrameRate 30		#integer, data frame rate in this file
EulerRotationOrder ZYX
CalibrationUnits mm
RotationUnits Degrees
GlobalAxisofGravity Y
BoneLengthAxis Y
ScaleFactor 1.00
[SegmentNames&Hierarchy]
#CHILD	PARENT
Pinger_Root GLOBAL
Pelvis Pinger_Root
L_Hip Pelvis
R_Hip Pelvis
Rear_Leg01 Pelvis
Spine1 Pelvis
L_Leg01 L_Hip
L_Leg02 L_Leg01
L_Leg03 L_Leg02
L_Foot L_Leg03
L_Toe1_01 L_Foot
L_Toe2_01 L_Foot
L_Toe3_01 L_Foot
planeAlignerLeft L_Foot
L_Toe1_02 L_Toe1_01
L_Toe1_03 L_Toe1_02
L_Toe2_02 L_Toe2_01
L_Toe2_03 L_Toe2_02
L_Toe3_02 L_Toe3_01
L_Toe3_03 L_Toe3_02
planeLockWeightLeft planeAlignerLeft
R_Leg01 R_Hip
R_Leg02 R_Leg01
R_Leg03 R_Leg02
R_Foot R_Leg03
planeAlignerRight R_Foot
R_Toe1_01 R_Foot
R_Toe2_01 R_Foot
R_Toe3_01 R_Foot
planeLockWeightRight planeAlignerRight
R_Toe1_02 R_Toe1_01
R_Toe1_03 R_Toe1_02
R_Toe2_02 R_Toe2_01
R_Toe2_03 R_Toe2_02
R_Toe3_02 R_Toe3_01
R_Toe3_03 R_Toe3_02
Rear_Leg02 Rear_Leg01
Rear_Leg03 Rear_Leg02
Rear_Leg04 Rear_Leg03
Rear_Foot Rear_Leg04
planeAlignerCenter Rear_Foot
Rear_Toe1_01 Rear_Foot
Rear_Toe2_01 Rear_Foot
Rear_Toe3_01 Rear_Foot
planeLockWeightCenter planeAlignerCenter
Rear_Toe1_02 Rear_Toe1_01
Rear_Toe1_03 Rear_Toe1_02
Rear_Toe2_02 Rear_Toe2_01
Rear_Toe2_03 Rear_Toe2_02
Rear_Toe3_02 Rear_Toe3_01
Rear_Toe3_03 Rear_Toe3_02
Back_Bone Spine1
Head Spine1
Motor_Bone Back_Bone
Ping_Mechanism Back_Bone
BN_LookIK Head
bottomMouth Head
L_Mouth01 Head
L_mouthFront Head
mouthGun Head
R_Mouth01 Head
R_mouthFront Head
TopMouth Head
weapon_bone Head
[BasePosition]
#SegmentName Tx, Ty, Tz, Rx, Ry, Rz, BoneLength
Pinger_Root 0.000000 0.000000 0.000000 -90.000000 0.000000 0.000000 10.000000 
Pelvis 0.000000 0.000000 0.000000 0.000000 0.000000 0.000000 10.000000 
L_Hip 0.000000 0.000000 0.000000 0.000000 0.000000 0.000000 10.000000 
R_Hip 0.000000 0.000000 0.000000 0.000000 0.000000 0.000000 10.000000 
Rear_Leg01 0.000000 0.000000 0.000000 0.000000 0.000000 0.000000 10.000000 
Spine1 0.000000 0.000000 0.000000 0.000000 0.000000 0.000000 10.000000 
L_Leg01 0.000000 0.000000 0.000000 0.000000 0.000000 0.000000 10.000000 
L_Leg02 0.000000 0.000000 0.000000 0.000000 0.000000 0.000000 10.000000 
L_Leg03 0.000000 0.000000 0.000000 0.000000 0.000000 0.000000 10.000000 
L_Foot 0.000000 0.000000 0.000000 0.000000 0.000000 0.000000 10.000000 
L_Toe1_01 0.000000 0.000000 0.000000 0.000000 0.000000 0.000000 10.000000 
L_Toe2_01 0.000000 0.000000 0.000000 0.000000 0.000000 0.000000 10.000000 
L_Toe3_01 0.000000 0.000000 0.000000 0.000000 0.000000 0.000000 10.000000 
planeAlignerLeft 0.000000 0.000000 0.000000 0.000000 0.000000 0.000000 10.000000 
L_Toe1_02 0.000000 0.000000 0.000000 0.000000 0.000000 0.000000 10.000000 
L_Toe1_03 0.000000 0.000000 0.000000 0.000000 0.000000 0.000000 10.000000 
L_Toe2_02 0.000000 0.000000 0.000000 0.000000 0.000000 0.000000 10.000000 
L_Toe2_03 0.000000 0.000000 0.000000 0.000000 0.000000 0.000000 10.000000 
L_Toe3_02 0.000000 0.000000 0.000000 0.000000 0.000000 0.000000 10.000000 
L_Toe3_03 0.000000 0.000000 0.000000 0.000000 0.000000 0.000000 10.000000 
planeLockWeightLeft 0.000000 0.000000 0.000000 0.000000 0.000000 0.000000 10.000000 
R_Leg01 0.000000 0.000000 0.000000 0.000000 0.000000 0.000000 10.000000 
R_Leg02 0.000000 0.000000 0.000000 0.000000 0.000000 0.000000 10.000000 
R_Leg03 0.000000 0.000000 0.000000 0.000000 0.000000 0.000000 10.000000 
R_Foot 0.000000 0.000000 0.000000 0.000000 0.000000 0.000000 10.000000 
planeAlignerRight 0.000000 0.000000 0.000000 0.000000 0.000000 0.000000 10.000000 
R_Toe1_01 0.000000 0.000000 0.000000 0.000000 0.000000 0.000000 10.000000 
R_Toe2_01 0.000000 0.000000 0.000000 0.000000 0.000000 0.000000 10.000000 
R_Toe3_01 0.000000 0.000000 0.000000 0.000000 0.000000 0.000000 10.000000 
planeLockWeightRight 0.000000 0.000000 0.000000 0.000000 0.000000 0.000000 10.000000 
R_Toe1_02 0.000000 0.000000 0.000000 0.000000 0.000000 0.000000 10.000000 
R_Toe1_03 0.000000 0.000000 0.000000 0.000000 0.000000 0.000000 10.000000 
R_Toe2_02 0.000000 0.000000 0.000000 0.000000 0.000000 0.000000 10.000000 
R_Toe2_03 0.000000 0.000000 0.000000 0.000000 0.000000 0.000000 10.000000 
R_Toe3_02 0.000000 0.000000 0.000000 0.000000 0.000000 0.000000 10.000000 
R_Toe3_03 0.000000 0.000000 0.000000 0.000000 0.000000 0.000000 10.000000 
Rear_Leg02 0.000000 0.000000 0.000000 0.000000 0.000000 0.000000 10.000000 
Rear_Leg03 0.000000 0.000000 0.000000 0.000000 0.000000 0.000000 10.000000 
Rear_Leg04 0.000000 0.000000 0.000000 0.000000 0.000000 0.000000 10.000000 
Rear_Foot 0.000000 0.000000 0.000000 0.000000 0.000000 0.000000 10.000000 
planeAlignerCenter 0.000000 0.000000 0.000000 0.000000 0.000000 0.000000 10.000000 
Rear_Toe1_01 0.000000 0.000000 0.000000 0.000000 0.000000 0.000000 10.000000 
Rear_Toe2_01 0.000000 0.000000 0.000000 0.000000 0.000000 0.000000 10.000000 
Rear_Toe3_01 0.000000 0.000000 0.000000 0.000000 0.000000 0.000000 10.000000 
planeLockWeightCenter 0.000000 0.000000 0.000000 0.000000 0.000000 0.000000 10.000000 
Rear_Toe1_02 0.000000 0.000000 0.000000 0.000000 0.000000 0.000000 10.000000 
Rear_Toe1_03 0.000000 0.000000 0.000000 0.000000 0.000000 0.000000 10.000000 
Rear_Toe2_02 0.000000 0.000000 0.000000 0.000000 0.000000 0.000000 10.000000 
Rear_Toe2_03 0.000000 0.000000 0.000000 0.000000 0.000000 0.000000 10.000000 
Rear_Toe3_02 0.000000 0.000000 0.000000 0.000000 0.000000 0.000000 10.000000 
Rear_Toe3_03 0.000000 0.000000 0.000000 0.000000 0.000000 0.000000 10.000000 
Back_Bone 0.000000 0.000000 0.000000 0.000000 0.000000 0.000000 10.000000 
Head 0.000000 0.000000 0.000000 0.000000 0.000000 0.000000 10.000000 
Motor_Bone 0.000000 0.000000 0.000000 0.000000 0.000000 0.000000 10.000000 
Ping_Mechanism 0.000000 0.000000 0.000000 0.000000 0.000000 0.000000 10.000000 
BN_LookIK 0.000000 0.000000 0.000000 0.000000 0.000000 0.000000 10.000000 
bottomMouth 0.000000 0.000000 0.000000 0.000000 0.000000 0.000000 10.000000 
L_Mouth01 0.000000 0.000000 0.000000 0.000000 0.000000 0.000000 10.000000 
L_mouthFront 0.000000 0.000000 0.000000 0.000000 0.000000 0.000000 10.000000 
mouthGun 0.000000 0.000000 0.000000 0.000000 0.000000 0.000000 10.000000 
R_Mouth01 0.000000 0.000000 0.000000 0.000000 0.000000 0.000000 10.000000 
R_mouthFront 0.000000 0.000000 0.000000 0.000000 0.000000 0.000000 10.000000 
TopMouth 0.000000 0.000000 0.000000 0.000000 0.000000 0.000000 10.000000 
weapon_bone 0.000000 0.000000 0.000000 0.000000 0.000000 0.000000 10.000000 
#Beginning of Data. Separated by tabs
#Fr	Tx	Ty	Tz	Rx	Ry	Rz	SF
[Pinger_Root]
17 0.000000 0.000000 0.000000 -0.000075 -0.000000 -0.000020 0.000000
18 0.000000 0.000000 0.000000 -0.000075 -0.000000 -0.000020 0.000000
[Pelvis]
17 334.543640 703.914185 4844.600098 128.293533 -87.473305 -122.324089 4906.889648
18 302.079376 629.148682 4884.143066 78.529106 -87.590118 -71.708870 4933.753906
[L_Hip]
17 5.766392 125.831482 872.656799 171.696472 -78.221367 98.224052 881.701050
18 5.766392 125.831482 872.656799 174.998581 -79.737663 94.575897 881.701050
[R_Hip]
17 5.765438 125.836372 -872.654907 14.261604 79.013626 102.727882 881.699829
18 5.765438 125.836372 -872.654907 8.398508 80.324722 97.134720 881.699829
[Rear_Leg01]
17 -192.298416 -925.602966 -0.001907 -167.587143 -11.783764 -138.078033 945.367432
18 -192.298416 -925.602966 -0.001907 -167.189529 -9.364906 -134.186569 945.367432
[Spine1]
17 290.604584 5.007505 0.000477 -4.379643 3.708678 21.626963 290.647736
18 290.604584 5.007505 0.000477 -5.806989 1.995675 21.775890 290.647736
[L_Leg01]
17 761.932007 -0.002384 -0.069261 78.612000 -16.263166 -64.392021 761.932068
18 761.932007 -0.002384 -0.069261 80.047859 -19.584768 -68.666916 761.932068
[L_Leg02]
17 1441.140503 -0.000954 -0.000715 -1.010710 0.452070 -115.712105 1441.140503
18 1441.140503 -0.000954 -0.000715 -1.231979 0.606851 -113.762878 1441.140503
[L_Leg03]
17 1686.963989 -0.000715 -0.000954 0.043620 -0.010479 99.067459 1686.963989
18 1686.963989 -0.000715 -0.000954 0.054267 -0.012998 95.268623 1686.963989
[L_Foot]
17 3041.570068 -30.715107 11.297464 -20.659855 17.476492 77.094330 3041.746094
18 3041.570068 -30.715107 11.297464 -19.574638 17.158180 76.707680 3041.746094
[L_Toe1_01]
17 -188.216690 -224.732346 -21.137953 88.100899 0.101931 -153.091599 293.899567
18 -188.216690 -224.732346 -21.137953 88.513474 -0.362872 -155.085495 293.899567
[L_Toe2_01]
17 200.746536 -219.926590 148.838394 -77.439362 -12.466228 -48.405552 332.896027
18 200.746536 -219.926590 148.838394 -77.396606 -12.806693 -47.568459 332.896027
[L_Toe3_01]
17 188.832520 -219.859131 -191.078659 -106.598480 20.293301 -52.230377 347.140900
18 188.832520 -219.859131 -191.078659 -106.815819 19.512762 -50.911945 347.140900
[planeAlignerLeft]
17 -147.636383 -675.316101 -35.908806 0.000000 -90.000000 -90.001633 692.197815
18 -129.266083 -664.529358 -27.301348 0.000000 -89.965736 -90.001633 677.535522
[L_Toe1_02]
17 413.761139 0.000477 0.000000 0.001384 -25.979940 0.001384 413.761139
18 413.761139 0.000477 0.000000 0.001384 -26.002779 0.001384 413.761139
[L_Toe1_03]
17 464.317322 0.000358 -0.000089 0.003299 48.315521 0.003299 464.317322
18 464.317322 0.000358 -0.000089 0.003850 54.502186 0.003850 464.317322
[L_Toe2_02]
17 342.235809 -0.000477 0.000238 0.004688 -80.156815 0.004688 342.235809
18 342.235809 -0.000477 0.000238 0.002934 -79.792572 0.002934 342.235809
[L_Toe2_03]
17 420.210846 -0.000715 0.000000 -179.999298 63.464874 -179.995697 420.210846
18 420.210846 -0.000715 0.000000 -179.999146 64.883347 -179.995575 420.210846
[L_Toe3_02]
17 329.270111 0.000954 0.000000 0.001176 -83.037956 0.001176 329.270111
18 329.270111 0.000954 0.000000 0.001176 -82.794289 0.001176 329.270111
[L_Toe3_03]
17 439.137451 -0.001907 0.000954 179.990738 66.171364 179.997894 439.137451
18 439.137451 -0.001907 0.000954 179.990631 66.620544 179.997787 439.137451
[planeLockWeightLeft]
17 -0.000924 0.000000 -0.000296 -0.011826 -0.004376 0.005620 0.000970
18 -0.001068 0.000000 -0.000296 -0.011826 -0.004376 0.005620 0.001108
[R_Leg01]
17 761.455627 -0.001907 -0.000358 110.110382 -30.405407 70.659317 761.455688
18 761.455627 -0.001907 -0.000358 111.546181 -33.598129 67.064903 761.455688
[R_Leg02]
17 1441.140625 0.000000 -0.000238 0.075521 0.003535 -106.891098 1441.140625
18 1441.140625 0.000000 -0.000238 0.102964 -0.019487 -110.290131 1441.140625
[R_Leg03]
17 1686.963989 0.000954 0.001431 -0.024647 0.009907 103.267227 1686.963989
18 1686.963989 0.000954 0.001431 -0.028218 0.010053 102.205994 1686.963989
[R_Foot]
17 3041.560059 -30.531288 -11.204481 7.890847 -23.617395 52.292805 3041.734131
18 3041.560059 -30.531288 -11.204481 8.455004 -22.707785 52.584175 3041.734131
[planeAlignerRight]
17 27.965704 -551.681030 51.132675 0.000000 -89.951546 -90.004936 554.750977
18 20.310682 -588.589233 34.046204 0.000000 -89.965736 -90.004951 589.922852
[R_Toe1_01]
17 -188.383347 -224.864899 21.052242 91.433113 -0.521265 -171.155045 294.101532
18 -188.383347 -224.864899 21.052242 91.105217 0.324409 -168.089340 294.101532
[R_Toe2_01]
17 200.637817 -220.002121 -148.787384 -99.107971 10.274521 -38.947693 332.857574
18 200.637817 -220.002121 -148.787384 -100.362434 10.816040 -42.016647 332.857574
[R_Toe3_01]
17 188.606735 -220.092957 191.126343 -75.037720 -18.923853 -42.754311 347.192566
18 188.606735 -220.092957 191.126343 -74.385567 -17.466770 -45.185852 347.192566
[planeLockWeightRight]
17 999.999451 0.000305 -0.000434 -0.011823 -0.004379 -0.000027 999.999451
18 999.999390 0.000305 -0.000465 -0.011823 -0.004379 -0.000027 999.999390
[R_Toe1_02]
17 413.762085 0.000477 -0.000119 0.001432 -20.108740 0.001432 413.762085
18 413.762085 0.000477 -0.000119 0.001425 -20.929153 0.001425 413.762085
[R_Toe1_03]
17 464.317810 0.000000 0.001088 0.000000 89.494484 0.003502 464.317810
18 464.317810 0.000000 0.001088 -0.026406 87.328560 -0.022909 464.317810
[R_Toe2_02]
17 342.234741 -0.000954 0.000238 -0.002336 -77.870361 -0.002336 342.234741
18 342.234741 -0.000954 0.000238 -0.002337 -77.337326 -0.002337 342.234741
[R_Toe2_03]
17 420.210846 0.000715 -0.000268 -179.993790 75.139252 -179.997314 420.210846
18 420.210846 0.000715 -0.000268 -179.992828 77.808739 -179.996353 420.210846
[R_Toe3_02]
17 329.270355 -0.000477 -0.000954 0.001178 -80.499847 0.001178 329.270355
18 329.270355 -0.000477 -0.000954 0.001178 -80.441460 0.001178 329.270355
[R_Toe3_03]
17 439.137939 0.000238 0.001431 -179.996262 77.999825 -179.992737 439.137939
18 439.137939 0.000238 0.001431 -179.995941 78.669640 -179.992432 439.137939
[Rear_Leg02]
17 1162.777710 -0.029802 0.005960 22.809576 -17.854265 -108.566734 1162.777710
18 1162.777710 -0.029802 0.005960 26.282076 -14.472995 -113.687096 1162.777710
[Rear_Leg03]
17 607.192505 -0.013351 -0.073195 0.010098 -0.005853 76.554802 607.192505
18 607.192505 -0.013351 -0.073195 0.010001 -0.006016 78.413177 607.192505
[Rear_Leg04]
17 995.874512 -0.020504 -0.011921 -0.042840 -0.018150 88.234680 995.874573
18 995.874512 -0.020504 -0.011921 -0.043857 -0.015532 95.154778 995.874573
[Rear_Foot]
17 3096.176270 -0.067472 -0.041425 -74.603096 60.115345 83.231697 3096.176270
18 3096.176270 -0.067472 -0.041425 -74.608345 59.152840 90.773148 3096.176270
[planeAlignerCenter]
17 133.327225 46.993568 -613.564148 12.240772 -0.001473 179.998184 629.639160
18 118.451393 56.058712 -648.609436 10.327392 -0.001504 179.998199 661.715637
[Rear_Toe1_01]
17 0.653352 83.966492 -371.173737 -3.930569 30.832235 82.836464 380.553192
18 0.653352 83.966492 -371.173737 -4.144498 32.724682 83.404503 380.553192
[Rear_Toe2_01]
17 178.200760 -294.826019 -362.060547 -1.390631 29.548201 -56.444160 499.765686
18 178.200760 -294.826019 -362.060547 3.660454 37.809605 -55.775627 499.765686
[Rear_Toe3_01]
17 -153.359680 -308.780914 -362.060852 5.034672 26.112127 -105.653671 499.952881
18 -153.359680 -308.780914 -362.060852 5.238116 35.901123 -105.361816 499.952881
[planeLockWeightCenter]
17 -0.000084 0.000305 0.000000 -0.011814 -0.004373 -0.000015 0.000316
18 -0.000083 0.000305 0.000000 -0.011814 -0.004373 -0.000015 0.000316
[Rear_Toe1_02]
17 379.707825 0.194073 0.000477 -0.000767 -33.624729 0.000838 379.707855
18 379.707825 0.194073 0.000477 -0.000767 -33.624729 0.000838 379.707855
[Rear_Toe1_03]
17 500.129700 0.165701 0.000119 0.017564 82.337479 0.017564 500.129761
18 500.129700 0.165701 0.000119 -179.981995 85.948753 -179.985489 500.129761
[Rear_Toe2_02]
17 340.494507 0.000238 -0.000954 0.001174 -85.923981 0.001174 340.494507
18 340.494507 0.000238 -0.000954 179.998825 -88.298882 179.998825 340.494507
[Rear_Toe2_03]
17 433.103577 0.000000 0.000238 179.987976 78.803986 179.987976 433.103546
18 433.103577 0.000000 0.000238 -179.995972 59.847820 -179.999603 433.103546
[Rear_Toe3_02]
17 340.494141 -0.000358 -0.000477 -179.997681 -89.308464 -179.997681 340.494171
18 340.494141 -0.000358 -0.000477 -179.994171 -86.228355 -179.994171 340.494171
[Rear_Toe3_03]
17 433.103577 0.001431 -0.000238 -179.999237 63.953953 -179.995667 433.103546
18 433.103577 0.001431 -0.000238 179.992905 49.119041 -179.999619 433.103546
[Back_Bone]
17 1312.175781 -701.934692 0.000954 -1.868886 1.153182 -84.487404 1488.125488
18 1312.175781 -701.934692 0.000954 -2.134085 1.239973 -84.407181 1488.125488
[Head]
17 1406.159424 809.709290 0.001431 -1.824613 1.212133 21.201395 1622.625488
18 1406.159424 809.709290 0.001431 -2.005273 1.347533 21.842533 1622.625488
[Motor_Bone]
17 1158.364380 -417.834747 0.000477 -1.885591 0.117789 -105.868080 1231.419434
18 1158.364380 -417.834747 0.000477 -2.086182 0.121302 -105.863945 1231.419434
[Ping_Mechanism]
17 1205.337158 -428.064545 -7.802190 0.000103 -0.000053 82.120995 1279.116089
18 1204.547241 -428.197906 2.919950 0.000103 -0.000053 82.120995 1278.395874
[BN_LookIK]
17 193.241119 1380.371704 -0.002861 0.000000 89.965736 -31.038179 1393.832153
18 193.241119 1380.371704 -0.002861 0.000000 89.965736 -31.038179 1393.832153
[bottomMouth]
17 -435.092926 615.759399 -0.000954 -0.000022 0.000016 73.527184 753.966492
18 -435.092926 615.759399 -0.000954 -0.000022 0.000016 73.527184 753.966492
[L_Mouth01]
17 554.440979 7.658243 838.222046 150.204178 23.759130 109.605339 1005.027161
18 554.440979 7.658243 838.222046 150.204178 23.759130 109.605339 1005.027161
[L_mouthFront]
17 551.629089 934.514771 339.150421 0.000081 2.804060 79.119301 1136.941284
18 551.629089 934.514771 339.150421 0.000081 2.804060 79.119301 1136.941284
[mouthGun]
17 55.332661 1627.420898 0.000000 0.000023 0.000009 -11.038128 1628.361328
18 55.332661 1627.420898 0.000000 0.000023 0.000009 -11.038128 1628.361328
[R_Mouth01]
17 554.442383 7.659197 -838.223938 29.795891 -23.759109 109.605331 1005.029541
18 554.442383 7.659197 -838.223938 29.795891 -23.759109 109.605331 1005.029541
[R_mouthFront]
17 551.629089 934.514282 -339.151367 0.000029 -2.803930 79.119133 1136.941162
18 551.629089 934.514282 -339.151367 0.000029 -2.803930 79.119133 1136.941162
[TopMouth]
17 461.269867 -56.106091 -0.008583 -0.000059 -0.000268 92.025169 464.669525
18 461.269867 -56.106091 -0.008583 -0.000059 -0.000268 92.025169 464.669525
[weapon_bone]
17 -987.239868 1448.372803 0.001431 0.000000 89.965736 -31.038221 1752.833740
18 -987.239868 1448.372803 0.001431 0.000000 89.965736 -31.038221 1752.833740
